inDegrees=yes
name=ik_lifting_orientations
DataType=double
version=3
OpenSimVersion=4.5-2024-01-10-34fd6af
endheader
time	pelvis_tilt	pelvis_list	pelvis_rotation	pelvis_tx	pelvis_ty	pelvis_tz	hip_flexion_r	hip_adduction_r	hip_rotation_r	knee_angle_r	knee_angle_r_beta	ankle_angle_r	subtalar_angle_r	mtp_angle_r	hip_flexion_l	hip_adduction_l	hip_rotation_l	knee_angle_l	knee_angle_l_beta	ankle_angle_l	subtalar_angle_l	mtp_angle_l	lumbar_extension	lumbar_bending	lumbar_rotation	arm_flex_r	arm_add_r	arm_rot_r	elbow_flex_r	pro_sup_r	wrist_flex_r	wrist_dev_r	arm_flex_l	arm_add_l	arm_rot_l	elbow_flex_l	pro_sup_l	wrist_flex_l	wrist_dev_l
2.16	0.1366765352455613	1.073244450196556	-71.83842983068456	0	0.9399999998679526	0	45.00066025708399	-10.09427873565711	0	60.17795441915909	1.050303441729398	-5.01973375929128	0	0	45.00066025708399	-10.09427873565711	0	60.17795441915909	1.050303441729398	-5.01973375929128	0	0	-0.3211193614232456	0.1408197380616427	-12.67558645028788	53.6654739517855	-6.92706939802569	10.49023482800548	64.4187001882477	1.141500231246758	0	0	0	-11.72798386584264	0	88.88424255173018	1.141500231246758	0	0
2.17	0.1517872414219108	0.9417204602216316	-72.02983329273614	0	0.9399999998679526	0	45.00066006193207	-10.09418129386131	0	60.17791318068776	1.050302721982295	-5.019707150960503	0	0	45.00066006193207	-10.09418129386131	0	60.17791318068776	1.050302721982295	-5.019707150960503	0	0	-0.02694349722186889	0.03054939449725936	-12.98226834300698	54.11889414455187	-5.879229912528308	11.04203965767898	63.83166526743302	1.141265444973794	0	0	0	-11.72847935158987	0	88.88447200580386	1.141265444973794	0	0
2.18	0.1626727611235375	0.8752650963338189	-72.08615951707779	0	0.9399999998679526	0	45.00065989235751	-10.09409664891003	0	60.17787735555032	1.050302096715691	-5.01968404203928	0	0	45.00065989235751	-10.09409664891003	0	60.17787735555032	1.050302096715691	-5.01968404203928	0	0	0.2695417504978126	-0.08200489784906861	-13.32808896112095	54.60174740356817	-4.949771405537133	11.5750673414029	63.52038409141112	1.141061437023652	0	0	0	-11.72890986376854	0	88.88467138055699	1.141061437023652	0	0
2.19	0.172215083167164	0.8749988806908267	-72.20391146091396	0	0.9399999998679526	0	45.00065967047627	-10.09398594487164	0	60.17783048884328	1.050301278737344	-5.019653826859305	0	0	45.00065967047627	-10.09398594487164	0	60.17783048884328	1.050301278737344	-5.019653826859305	0	0	0.6032676820463281	-0.2174014405303447	-13.60959119576985	55.14631048445634	-4.117441702510168	11.88126912099926	62.76099424723786	1.140794502764344	0	0	0	-11.72947315106015	0	88.88493225250865	1.140794502764344	0	0
2.2	0.173726965278053	0.8200781151492075	-72.26900198472507	0	0.9399999998679526	0	45.00065947081578	-10.0938868582705	0	60.17778816096664	1.050300539976531	-5.019626815828658	0	0	45.00065947081578	-10.0938868582705	0	60.17778816096664	1.050300539976531	-5.019626815828658	0	0	0.8439953087869503	-0.3140001028256106	-13.73825496420815	55.6673811683157	-3.484750366147175	12.02257007649409	61.59878355965517	1.140553943553108	0	0	0	-11.72998140877759	0	88.88516734842261	1.140553943553108	0	0
2.21	0.1760371160351102	0.6862712175825896	-72.32297767403777	0	0.9399999998679526	0	45.00065926040303	-10.09378269772369	0	60.1777434903949	1.050299760327976	-5.019598440882225	0	0	45.00065926040303	-10.09378269772369	0	60.1777434903949	1.050299760327976	-5.019598440882225	0	0	0.9801078775312388	-0.3806250026627784	-13.9663542906326	56.09044393323121	-2.634495287253657	12.33421574963794	60.49896269932295	1.140300272707124	0	0	0	-11.7305176358598	0	88.88541525819998	1.140300272707124	0	0
2.22	0.1823926760327335	0.5656732418816681	-72.44597673503777	0	0.9399999998679526	0	45.00065907523423	-10.09369057810808	0	60.17770435112412	1.050299077218834	-5.019573325489589	0	0	45.00065907523423	-10.09369057810808	0	60.17770435112412	1.050299077218834	-5.019573325489589	0	0	1.13124880946141	-0.452362484805287	-14.11724258934346	56.42451651564053	-1.800003877207831	12.93372813543451	60.05171137652096	1.140077400481526	0	0	0	-11.73098809869924	0	88.88563306880839	1.140077400481526	0	0
2.23	0.1944020364057759	0.4314603086193329	-72.64069133536071	0	0.9399999998679526	0	45.00065888166147	-10.09359444466759	0	60.17766340003708	1.050298362487533	-5.019547129066326	0	0	45.00065888166147	-10.09359444466759	0	60.17766340003708	1.050298362487533	-5.019547129066326	0	0	1.06010589796968	-0.4339919819712688	-14.24834100591436	57.00412728805313	-0.9664887363174477	13.55539527632432	59.60453511933488	1.139844320008903	0	0	0	-11.73148026628388	0	88.88586085582872	1.139844320008903	0	0
